<?xml version="1.0" standalone="no"?>
<!DOCTYPE svg PUBLIC "-//W3C//DTD SVG 20010904//EN"
 "http://www.w3.org/TR/2001/REC-SVG-20010904/DTD/svg10.dtd">
<svg version="1.0" xmlns="http://www.w3.org/2000/svg"
 width="670.000000pt" height="250.000000pt" viewBox="0 0 670.000000 250.000000"
 preserveAspectRatio="xMidYMid meet">

<g transform="translate(0.000000,250.000000) scale(0.100000,-0.100000)"
fill="#000000" stroke="none">
<path d="M0 1250 l0 -1250 1250 0 1250 0 0 555 c0 363 -3 555 -10 555 -6 0
-10 -133 -10 -380 l0 -380 -140 0 -140 0 0 875 0 875 150 0 150 0 0 200 0 200
-1250 0 -1250 0 0 -1250z"/>
<path d="M2480 1605 c0 -157 4 -245 10 -245 6 0 10 88 10 245 0 157 -4 245
-10 245 -6 0 -10 -88 -10 -245z"/>
</g>
</svg>
