<?xml version="1.0" standalone="no"?>
<!DOCTYPE svg PUBLIC "-//W3C//DTD SVG 20010904//EN"
 "http://www.w3.org/TR/2001/REC-SVG-20010904/DTD/svg10.dtd">
<svg version="1.0" xmlns="http://www.w3.org/2000/svg"
 width="670.000000pt" height="250.000000pt" viewBox="0 0 670.000000 250.000000"
 preserveAspectRatio="xMidYMid meet">

<g transform="translate(0.000000,250.000000) scale(0.100000,-0.100000)"
fill="#000000" stroke="none">
<path d="M6113 2102 c-135 -48 -217 -154 -242 -312 -14 -85 -14 -1043 -1
-1130 14 -90 70 -200 124 -244 85 -70 123 -81 286 -81 163 0 201 11 286 81 54
44 110 154 124 244 13 86 13 1044 0 1130 -22 140 -100 249 -216 302 -69 32
-283 38 -361 10z m252 -254 c55 -43 55 -42 55 -623 0 -581 0 -580 -55 -623
-39 -31 -131 -31 -170 0 -55 43 -55 42 -55 623 0 581 0 580 55 623 21 17 41
22 85 22 44 0 64 -5 85 -22z"/>
<path d="M2200 1225 l0 -875 140 0 140 0 0 380 0 380 175 0 175 0 0 125 0 125
-175 0 -175 0 0 245 0 245 225 0 225 0 0 125 0 125 -365 0 -365 0 0 -875z"/>
<path d="M3136 1251 c-76 -467 -141 -860 -143 -875 l-5 -26 129 0 130 0 24
170 23 170 157 0 157 0 12 -87 c7 -49 18 -124 24 -168 l11 -80 138 -3 c92 -2
137 1 137 8 0 6 -63 397 -140 870 -77 473 -140 862 -140 865 0 3 -85 5 -188 5
l-188 0 -138 -849z m377 112 c32 -225 57 -414 57 -420 0 -10 -31 -13 -121 -13
l-122 0 6 33 c2 17 29 206 58 420 29 213 56 387 59 387 3 0 31 -183 63 -407z"/>
<path d="M3990 1975 l0 -125 145 0 145 0 0 -750 0 -750 135 0 135 0 0 750 0
750 145 0 145 0 0 125 0 125 -425 0 -425 0 0 -125z"/>
<path d="M4900 1975 l0 -125 145 0 145 0 0 -750 0 -750 135 0 135 0 0 750 0
750 145 0 145 0 0 125 0 125 -425 0 -425 0 0 -125z"/>
</g>
</svg>
